<svg width="40" height="40" viewBox="0 0 40 40" fill="none" xmlns="http://www.w3.org/2000/svg">
<rect width="40" height="40" fill="#FDF9CA"/>
<path d="M20 29C17.5 29 15.375 28.125 13.625 26.375C11.875 24.625 11 22.5 11 20C11 17.5 11.875 15.375 13.625 13.625C15.375 11.875 17.5 11 20 11C20.2333 11 20.4627 11.0083 20.688 11.025C20.9133 11.0417 21.134 11.0667 21.35 11.1C20.6667 11.5833 20.1207 12.2127 19.712 12.988C19.3033 13.7633 19.0993 14.6007 19.1 15.5C19.1 17 19.625 18.275 20.675 19.325C21.725 20.375 23 20.9 24.5 20.9C25.4167 20.9 26.2583 20.6957 27.025 20.287C27.7917 19.8783 28.4167 19.3327 28.9 18.65C28.9333 18.8667 28.9583 19.0873 28.975 19.312C28.9917 19.5367 29 19.766 29 20C29 22.5 28.125 24.625 26.375 26.375C24.625 28.125 22.5 29 20 29Z" fill="#514B00"/>
</svg>
