<svg width="32" height="32" viewBox="0 0 32 32" fill="none" xmlns="http://www.w3.org/2000/svg">
<rect width="32" height="32" rx="4" fill="#FDF9CA"/>
<path d="M15.5557 24V24.8887L10.2217 28L4 22.666V17.7773L15.5557 24ZM28 22.666L21.7773 28L16.4443 24.8887V24L28 17.7773V22.666ZM21.7773 5.77734V10.2217L16.4443 16.4443H15.5557L10.2217 10.2217L9.33301 11.1113L15.5557 17.7773V22.666L4 16.4443L10.2217 10.2217V5.77734L15.5557 4H16.4443L21.7773 5.77734ZM28 16.4443L16.4443 22.666V17.7773L22.667 11.1113L28 16.4443ZM15.1113 5.33301L15.5557 10.2217H16.4443L16.8887 5.33301H15.1113Z" fill="#1B120F"/>
</svg>
