<svg width="40" height="40" viewBox="0 0 40 40" fill="none" xmlns="http://www.w3.org/2000/svg">
<rect width="40" height="40" fill="#FDF9CA"/>
<path d="M30 20.2502C30 22.4842 29.364 24.4932 28.092 26.2772C26.82 28.0612 25.1773 29.2956 23.164 29.9802C22.9293 30.0256 22.758 29.9946 22.65 29.8872C22.5968 29.8354 22.5548 29.7731 22.5268 29.7043C22.4987 29.6354 22.4852 29.5615 22.487 29.4872V26.6702C22.487 25.8069 22.2613 25.1752 21.81 24.7752C22.2604 24.7289 22.7067 24.6487 23.145 24.5352C23.539 24.4286 23.9467 24.2552 24.368 24.0152C24.7722 23.788 25.1301 23.4867 25.423 23.1272C25.705 22.7752 25.935 22.3079 26.113 21.7252C26.291 21.1426 26.38 20.4732 26.38 19.7172C26.38 18.6399 26.0373 17.7232 25.352 16.9672C25.672 16.1579 25.637 15.2502 25.247 14.2442C25.0043 14.1642 24.653 14.2132 24.193 14.3912C23.7759 14.5483 23.3747 14.7449 22.995 14.9782L22.5 15.2982C21.6871 15.0661 20.8454 14.9496 20 14.9522C19.1545 14.9499 18.3129 15.0667 17.5 15.2992C17.319 15.1742 17.1346 15.0542 16.947 14.9392C16.717 14.7966 16.3543 14.6252 15.859 14.4252C15.365 14.2252 14.9917 14.1652 14.739 14.2452C14.3577 15.2499 14.3277 16.1572 14.649 16.9672C13.9623 17.7232 13.619 18.6399 13.619 19.7172C13.619 20.4732 13.7083 21.1406 13.887 21.7192C14.065 22.2972 14.2927 22.7642 14.57 23.1202C14.8567 23.4847 15.2129 23.7886 15.618 24.0142C16.0393 24.2542 16.4473 24.4276 16.842 24.5342C17.2373 24.6422 17.6823 24.7226 18.177 24.7752C17.8303 25.0952 17.6177 25.5536 17.539 26.1502C17.3527 26.2409 17.1559 26.3081 16.953 26.3502C16.7086 26.3982 16.46 26.4206 16.211 26.4172C15.9243 26.4172 15.64 26.3216 15.358 26.1302C15.076 25.9382 14.835 25.6602 14.635 25.2962C14.4797 25.0203 14.264 24.783 14.004 24.6022C13.748 24.4242 13.533 24.3176 13.359 24.2822L13.099 24.2422C12.917 24.2422 12.791 24.2622 12.721 24.3022C12.651 24.3422 12.6293 24.3932 12.656 24.4552C12.6849 24.5234 12.7244 24.5865 12.773 24.6422C12.8232 24.702 12.8803 24.7557 12.943 24.8022L13.033 24.8682C13.2243 24.9582 13.4133 25.1276 13.6 25.3762C13.7867 25.6256 13.9233 25.8522 14.01 26.0562L14.14 26.3632C14.2533 26.7012 14.4447 26.9749 14.714 27.1842C14.9833 27.3942 15.274 27.5276 15.586 27.5842C15.898 27.6422 16.1997 27.6736 16.491 27.6782C16.7817 27.6822 17.0227 27.6666 17.214 27.6312L17.513 27.5782C17.513 27.9162 17.5153 28.3122 17.52 28.7662L17.526 29.4862C17.526 29.6462 17.4693 29.7796 17.356 29.8862C17.244 29.9942 17.0707 30.0256 16.836 29.9802C14.822 29.2949 13.1793 28.0606 11.908 26.2772C10.636 24.4926 10 22.4836 10 20.2502C10 18.3902 10.447 16.6752 11.341 15.1052C12.2071 13.5649 13.4622 12.2787 14.981 11.3752C16.4955 10.4636 18.2323 9.98774 20 10.0002C21.768 9.98756 23.5052 10.4634 25.02 11.3752C26.5384 12.2789 27.7932 13.565 28.659 15.1052C29.553 16.6759 30 18.3909 30 20.2502Z" fill="#514B00"/>
</svg>
