<svg width="40" height="40" viewBox="0 0 40 40" fill="none" xmlns="http://www.w3.org/2000/svg">
<rect width="40" height="40" fill="#1B120F"/>
<path d="M22.1318 12.8125C22.5791 12.9494 23.0079 13.1284 23.415 13.3428L27.1201 12.8799L26.6465 16.668C26.6512 16.6775 26.6565 16.6867 26.6611 16.6963L30.3047 19.5312L27.1113 22.0137C26.9883 22.4406 26.8283 22.8514 26.6348 23.2432L27.1201 27.1201L23.2432 26.6348C22.9229 26.7929 22.5903 26.9295 22.2461 27.041L19.9453 30L17.6436 27.041C17.3072 26.932 16.9814 26.8001 16.668 26.6465L12.8799 27.1201L13.3428 23.415C13.0464 22.8523 12.82 22.2475 12.6748 21.6113L10 19.5312L13.0156 17.1846C13.1096 16.949 13.2145 16.7191 13.3311 16.4961L12.8799 12.8799L16.4961 13.3311C16.8968 13.1217 17.3185 12.9471 17.7578 12.8125L19.9453 10L22.1318 12.8125ZM20 15.5C17.5147 15.5 15.5 17.5147 15.5 20C15.5 22.4853 17.5147 24.5 20 24.5C22.4853 24.5 24.5 22.4853 24.5 20C24.5 17.5147 22.4853 15.5 20 15.5ZM20 16.5C21.933 16.5 23.5 18.067 23.5 20C23.5 21.933 21.933 23.5 20 23.5C18.067 23.5 16.5 21.933 16.5 20C16.5 18.067 18.067 16.5 20 16.5Z" fill="#FDF9CA"/>
</svg>
