<svg width="40" height="40" viewBox="0 0 40 40" fill="none" xmlns="http://www.w3.org/2000/svg">
<rect width="40" height="40" fill="#1B120F"/>
<path d="M19.63 26.6671V27.4074L15.1857 30.0001L10.0001 25.5558V21.4816L19.63 26.6671ZM30.0001 25.5558L24.8146 30.0001L20.3703 27.4074V26.6671L30.0001 21.4816V25.5558ZM19.63 21.4816V25.5558L10.0001 20.3703L14.4445 15.9259L19.63 21.4816ZM30.0001 20.3703L20.3703 25.5558V21.4816L25.5548 15.9259L30.0001 20.3703ZM24.8146 11.4816V15.1857L20.3703 20.3703H19.63L15.1857 15.1857V11.4816L19.63 10.0001H20.3703L24.8146 11.4816ZM19.2589 11.1115L19.63 15.1857H20.3703L20.7404 11.1115H19.2589Z" fill="#FFF576"/>
</svg>
