<svg width="40" height="40" viewBox="0 0 40 40" fill="none" xmlns="http://www.w3.org/2000/svg">
<rect width="40" height="40" fill="#FDF9CA"/>
<path d="M20 10C14.452 10 10 14.452 10 20C10 25.548 14.452 30 20 30C25.548 30 30 25.548 30 20C30 14.452 25.548 10 20 10ZM24.58 24.42C24.4798 24.5478 24.3403 24.639 24.1831 24.6797C24.0258 24.7203 23.8596 24.7082 23.71 24.645C21.355 23.194 18.387 22.871 14.935 23.645C14.8567 23.6675 14.7745 23.6734 14.6937 23.6626C14.613 23.6517 14.5353 23.6242 14.4657 23.5818C14.3961 23.5395 14.336 23.4831 14.2892 23.4164C14.2425 23.3496 14.21 23.2739 14.194 23.194C14.097 22.839 14.323 22.516 14.645 22.419C18.452 21.549 21.677 21.935 24.387 23.549C24.677 23.774 24.774 24.129 24.581 24.419M25.808 21.741C25.582 22.096 25.066 22.192 24.775 21.967C22.098 20.322 18.001 19.837 14.807 20.837C14.388 20.967 13.937 20.741 13.84 20.289C13.71 19.87 13.936 19.419 14.388 19.322C18.033 18.192 22.518 18.773 25.614 20.644C25.904 20.87 26.034 21.322 25.808 21.741ZM25.904 18.87C22.678 16.967 17.356 16.773 14.259 17.74C13.807 17.87 13.259 17.612 13.13 17.096C13.001 16.644 13.26 16.096 13.775 15.966C17.324 14.934 23.13 15.096 26.872 17.322C27.324 17.58 27.452 18.192 27.227 18.58C26.969 18.999 26.356 19.128 25.904 18.87Z" fill="#514B00"/>
</svg>
