<svg width="40" height="40" viewBox="0 0 40 40" fill="none" xmlns="http://www.w3.org/2000/svg">
<path d="M15.1276 21.905L10.3658 20.451C10.2143 20.4248 10.072 20.3613 9.95223 20.2665C9.86355 20.1953 9.67654 20.0453 9.67861 19.8358C9.68021 19.6671 9.80358 19.5483 9.94441 19.413C10.0709 19.292 10.2195 19.1954 10.3823 19.1284L29.0578 12.032C29.204 11.9992 29.3549 11.9915 29.5038 12.0094C29.6627 12.0286 29.9024 12.0575 30.0843 12.2459C30.2118 12.3775 30.2451 12.5284 30.2837 12.6899C30.3245 12.8658 30.3323 13.0475 30.3067 13.2261C29.2216 18.2642 28.1364 23.302 27.0513 28.3397C27.0037 28.478 26.9252 28.6041 26.8216 28.7087C26.6657 28.8689 26.4574 28.97 26.2332 28.9943C26.009 29.0186 25.7833 28.9645 25.5957 28.8415L20.6935 25.3293L18.482 27.4157C18.3908 27.5386 18.2779 27.6443 18.1487 27.7281C17.9416 27.859 17.7016 27.9307 17.4555 27.9352L17.7664 23.1894L26.6529 15.3073C26.6837 15.2716 26.7022 15.2272 26.7058 15.1806C26.7076 15.1532 26.7113 15.0965 26.6706 15.0536C26.6458 15.0277 26.6095 15.015 26.5238 15.0132C26.4246 15.0116 26.3256 15.0252 26.2307 15.0536L15.1276 21.905Z" fill="#1B120F"/>
</svg>
