<svg width="40" height="40" viewBox="0 0 40 40" fill="none" xmlns="http://www.w3.org/2000/svg">
<rect width="40" height="40" fill="#1B120F"/>
<path d="M15.2793 21.905L10.6658 20.451C10.519 20.4248 10.3811 20.3613 10.2651 20.2665C10.1792 20.1953 9.99801 20.0453 10 19.8358C10.0016 19.6671 10.1211 19.5483 10.2575 19.413C10.3801 19.292 10.524 19.1954 10.6818 19.1284L28.7757 12.032C28.9174 11.9992 29.0636 11.9915 29.2078 12.0094C29.3618 12.0286 29.594 12.0575 29.7703 12.2459C29.8938 12.3775 29.9261 12.5284 29.9635 12.6899C30.003 12.8658 30.0105 13.0475 29.9857 13.2261C28.9344 18.2642 27.883 23.302 26.8317 28.3397C26.7856 28.478 26.7095 28.6041 26.6091 28.7087C26.4581 28.8689 26.2562 28.97 26.0391 28.9943C25.8219 29.0186 25.6032 28.9645 25.4214 28.8415L20.6719 25.3293L18.5293 27.4157C18.4409 27.5386 18.3315 27.6443 18.2063 27.7281C18.0057 27.859 17.7732 27.9307 17.5347 27.9352L17.8359 23.1894L26.4457 15.3073C26.4756 15.2716 26.4935 15.2272 26.4969 15.1806C26.4987 15.1532 26.5023 15.0965 26.4629 15.0536C26.4388 15.0277 26.4037 15.015 26.3206 15.0132C26.2245 15.0116 26.1286 15.0252 26.0366 15.0536L15.2793 21.905Z" fill="#FDF9CA"/>
</svg>
